<svg width="150" height="150" viewBox="0 0 150 150" fill="none" xmlns="http://www.w3.org/2000/svg">
<rect width="150" height="150" rx="35" fill="#333333"/>
<path d="M75.0004 32C51.255 32 32 51.7387 32 76.0886C32 95.5682 44.3209 112.094 61.4063 117.924C63.5553 118.332 64.3443 116.968 64.3443 115.803C64.3443 114.752 64.3044 111.279 64.2859 107.595C52.3231 110.262 49.7988 102.393 49.7988 102.393C47.8428 97.297 45.0244 95.942 45.0244 95.942C41.123 93.2056 45.3185 93.2618 45.3185 93.2618C49.6365 93.5728 51.9101 97.8051 51.9101 97.8051C55.7453 104.545 61.9695 102.597 64.4233 101.47C64.8092 98.6207 65.9236 96.6757 67.1534 95.5747C57.6024 94.4599 47.5622 90.6795 47.5622 73.7859C47.5622 68.9725 49.242 65.0395 51.9927 61.9519C51.5463 60.8415 50.0744 56.3572 52.4093 50.2844C52.4093 50.2844 56.0202 49.0994 64.2374 54.8036C67.6675 53.8268 71.346 53.3369 75.0004 53.3201C78.6547 53.3369 82.3361 53.8268 85.7725 54.8036C93.9798 49.0994 97.5857 50.2844 97.5857 50.2844C99.9263 56.3572 98.4537 60.8415 98.0073 61.9519C100.764 65.0395 102.433 68.9725 102.433 73.7859C102.433 90.7196 92.3734 94.4482 82.7982 95.5397C84.3405 96.9079 85.7148 99.5909 85.7148 103.704C85.7148 109.603 85.665 114.351 85.665 115.803C85.665 116.977 86.439 118.351 88.6187 117.918C105.695 112.082 118 95.5616 118 76.0886C118 51.7387 98.7478 32 75.0004 32" fill="white"/>
<path d="M48.4131 94.999C48.3186 95.2159 47.9831 95.2809 47.6775 95.132C47.3662 94.9896 47.1914 94.694 47.2923 94.4764C47.3847 94.253 47.7209 94.1908 48.0315 94.3405C48.3435 94.4829 48.5212 94.7814 48.4131 94.999" fill="#161514"/>
<path d="M50.1519 96.9712C49.9472 97.1642 49.547 97.0746 49.2755 96.7695C48.9948 96.4652 48.9422 96.0582 49.1497 95.8623C49.3608 95.6693 49.7489 95.7596 50.0303 96.064C50.3111 96.3719 50.3658 96.776 50.1519 96.9712" fill="#161514"/>
<path d="M51.8438 99.4854C51.5808 99.6712 51.1508 99.497 50.885 99.1088C50.622 98.7206 50.622 98.255 50.8907 98.0685C51.1572 97.882 51.5808 98.0497 51.8502 98.4351C52.1125 98.8298 52.1125 99.2953 51.8438 99.4854" fill="#161514"/>
<path d="M54.162 101.914C53.9268 102.178 53.4257 102.107 53.059 101.747C52.6837 101.395 52.5792 100.896 52.8152 100.632C53.0533 100.367 53.5572 100.442 53.9268 100.799C54.2992 101.15 54.4129 101.653 54.162 101.914" fill="#161514"/>
<path d="M57.3608 103.325C57.257 103.666 56.7744 103.822 56.2883 103.677C55.8028 103.527 55.4851 103.126 55.5832 102.781C55.6841 102.437 56.1689 102.275 56.6586 102.43C57.1433 102.579 57.4617 102.977 57.3608 103.325" fill="#161514"/>
<path d="M60.8737 103.586C60.8858 103.946 60.4735 104.245 59.9632 104.251C59.4501 104.263 59.035 103.972 59.0293 103.617C59.0293 103.254 59.4323 102.958 59.9454 102.949C60.4558 102.939 60.8737 103.229 60.8737 103.586" fill="#161514"/>
<path d="M64.1425 103.02C64.2036 103.371 63.8489 103.732 63.3422 103.828C62.8439 103.921 62.3827 103.704 62.3194 103.356C62.2576 102.996 62.6186 102.635 63.1161 102.542C63.6236 102.452 64.0778 102.663 64.1425 103.02" fill="#161514"/>
</svg>
