<svg width="150" height="150" viewBox="0 0 150 150" fill="none" xmlns="http://www.w3.org/2000/svg">
<rect width="150" height="150" rx="35" fill="#F2F2F2"/>
<path d="M37.8636 107.266H51.5455V74.0385L32 59.3794V101.402C32 104.642 34.624 107.266 37.8636 107.266Z" fill="#4285F4"/>
<path d="M98.4551 107.266H112.137C115.377 107.266 118.001 104.642 118.001 101.402V59.3794L98.4551 74.0385V107.266Z" fill="#34A853"/>
<path d="M98.4551 48.6294V74.0385L118.001 59.3794V51.5613C118.001 44.3148 109.728 40.176 103.928 44.5249L98.4551 48.6294Z" fill="#FBBC04"/>
<path fill-rule="evenodd" clip-rule="evenodd" d="M51.5449 74.0385V48.6294L74.9995 66.2203L98.454 48.6294V74.0385L74.9995 91.6294L51.5449 74.0385Z" fill="#EA4335"/>
<path d="M32 51.5613V59.3794L51.5455 74.0385V48.6294L46.0727 44.5249C40.2726 40.176 32 44.3148 32 51.5613Z" fill="#C5221F"/>
</svg>
