<svg width="150" height="150" viewBox="0 0 150 150" fill="none" xmlns="http://www.w3.org/2000/svg">
<path d="M38.0361 149.469C29.1155 149.064 24.2696 147.579 21.0465 146.322C16.7756 144.659 13.7308 142.68 10.5255 139.479C7.32012 136.278 5.33629 133.233 3.68235 128.962C2.42518 125.739 0.940649 120.893 0.534966 111.973C0.089161 102.33 0 99.4368 0 75.0067C0 50.5766 0.0980771 47.6878 0.530508 38.0361C0.93619 29.1155 2.42964 24.2785 3.67789 21.0465C5.34074 16.7756 7.32458 13.7308 10.521 10.521C13.7219 7.32012 16.7667 5.33183 21.042 3.67789C24.2652 2.42072 29.1111 0.93619 38.0316 0.530508C47.6788 0.089161 50.5766 0 74.9978 0C99.4279 0 102.317 0.0980771 111.968 0.530508C120.889 0.93619 125.726 2.42964 128.958 3.67789C133.229 5.33183 136.274 7.32012 139.479 10.521C142.684 13.7219 144.659 16.7712 146.322 21.042C147.579 24.2652 149.064 29.1111 149.469 38.0316C149.911 47.6833 150 50.5721 150 75.0022C150 99.4234 149.911 102.321 149.469 111.973C149.064 120.893 147.57 125.739 146.322 128.962C144.659 133.233 142.68 136.278 139.479 139.479C136.278 142.68 133.229 144.659 128.958 146.322C125.735 147.579 120.889 149.064 111.968 149.469C102.326 149.911 99.4279 150 74.9978 150C50.5766 150 47.6788 149.915 38.0361 149.469" fill="url(#paint0_radial)"/>
<path d="M38.0361 149.469C29.1155 149.064 24.2696 147.579 21.0465 146.322C16.7756 144.659 13.7308 142.68 10.5255 139.479C7.32012 136.278 5.33629 133.233 3.68235 128.962C2.42518 125.739 0.940649 120.893 0.534966 111.973C0.089161 102.33 0 99.4368 0 75.0067C0 50.5766 0.0980771 47.6878 0.530508 38.0361C0.936191 29.1155 2.42964 24.2785 3.67789 21.0465C5.34074 16.7756 7.32458 13.7308 10.521 10.521C13.7219 7.32012 16.7667 5.33183 21.042 3.67789C24.2652 2.42072 29.1111 0.93619 38.0316 0.530508C47.6788 0.089161 50.5766 0 74.9978 0C99.4279 0 102.317 0.0980771 111.968 0.530508C120.889 0.93619 125.726 2.42964 128.958 3.67789C133.229 5.33183 136.274 7.32012 139.479 10.521C142.684 13.7219 144.659 16.7712 146.322 21.042C147.579 24.2652 149.064 29.1111 149.469 38.0316C149.911 47.6833 150 50.5721 150 75.0022C150 99.4234 149.911 102.321 149.469 111.973C149.064 120.893 147.57 125.739 146.322 128.962C144.659 133.233 142.68 136.278 139.479 139.479C136.278 142.68 133.229 144.659 128.958 146.322C125.735 147.579 120.889 149.064 111.968 149.469C102.326 149.911 99.4279 150 74.9978 150C50.5766 150 47.6788 149.915 38.0361 149.469Z" fill="url(#paint1_radial)"/>
<path d="M56.5831 75.3194C56.5831 65.061 64.8969 56.7427 75.1553 56.7427C85.4137 56.7427 93.732 65.061 93.732 75.3194C93.732 85.5778 85.4137 93.8961 75.1553 93.8961C64.8969 93.8961 56.5831 85.5778 56.5831 75.3194V75.3194ZM46.5409 75.3194C46.5409 91.1232 59.3515 103.934 75.1553 103.934C90.9591 103.934 103.77 91.1232 103.77 75.3194C103.77 59.5156 90.9591 46.7049 75.1553 46.7049C59.3515 46.7049 46.5413 59.5147 46.5413 75.3194H46.5409ZM98.2159 45.5704C98.2154 46.8929 98.6071 48.186 99.3414 49.286C100.076 50.3859 101.12 51.2435 102.341 51.7501C103.563 52.2567 104.908 52.3896 106.205 52.1321C107.502 51.8746 108.694 51.2382 109.63 50.3034C110.565 49.3686 111.203 48.1773 111.461 46.8802C111.72 45.5832 111.588 44.2386 111.082 43.0165C110.576 41.7944 109.72 40.7497 108.62 40.0144C107.521 39.2792 106.228 38.8865 104.906 38.886H104.903C103.13 38.8868 101.43 39.5912 100.176 40.8445C98.9226 42.0978 98.2175 43.7976 98.2159 45.5704V45.5704ZM52.6422 120.679C47.2091 120.432 44.2561 119.527 42.2937 118.762C39.692 117.749 37.8356 116.543 35.8839 114.594C33.9322 112.645 32.724 110.79 31.7156 108.189C30.9506 106.227 30.0456 103.273 29.7987 97.8401C29.5285 91.9662 29.4746 90.2017 29.4746 75.3203C29.4746 60.4389 29.533 58.6793 29.7987 52.8004C30.0461 47.3674 30.9578 44.4193 31.7156 42.452C32.7285 39.8502 33.9348 37.9939 35.8839 36.0422C37.833 34.0904 39.6875 32.8823 42.2937 31.8739C44.2552 31.1089 47.2091 30.2039 52.6422 29.9569C58.5161 29.6868 60.2806 29.6328 75.1553 29.6328C90.03 29.6328 91.7963 29.6903 97.6752 29.9578C103.108 30.2052 106.056 31.1169 108.024 31.8748C110.625 32.8832 112.482 34.094 114.433 36.0431C116.385 37.9921 117.589 39.8511 118.602 42.4529C119.367 44.4144 120.272 47.3683 120.519 52.8013C120.789 58.6802 120.843 60.4398 120.843 75.3212C120.843 90.2026 120.789 91.9622 120.519 97.841C120.271 103.274 119.362 106.227 118.602 108.189C117.589 110.791 116.382 112.648 114.433 114.595C112.484 116.542 110.625 117.75 108.024 118.763C106.062 119.528 103.108 120.433 97.6752 120.68C91.8012 120.95 90.0367 121.004 75.1553 121.004C60.2739 121.004 58.5143 120.95 52.6422 120.68V120.679ZM52.1808 19.9312C46.2484 20.2014 42.1947 21.142 38.6546 22.5196C34.9905 23.9421 31.8846 25.8506 28.7831 28.9472C25.6817 32.0437 23.7781 35.1501 22.3555 38.8186C20.978 42.361 20.0373 46.4125 19.7672 52.3448C19.4925 58.2865 19.4297 60.1861 19.4297 75.3194C19.4297 90.4527 19.4925 92.3523 19.7672 98.294C20.0373 104.227 20.978 108.278 22.3555 111.82C23.7781 115.484 25.6821 118.596 28.7831 121.692C31.8841 124.787 34.9861 126.693 38.6546 128.119C42.2014 129.497 46.2484 130.437 52.1808 130.708C58.1256 130.978 60.022 131.045 75.1553 131.045C90.2886 131.045 92.1882 130.982 98.1299 130.708C104.063 130.437 108.114 129.497 111.656 128.119C115.32 126.693 118.426 124.788 121.528 121.692C124.629 118.595 126.529 115.484 127.955 111.82C129.333 108.278 130.278 104.226 130.543 98.294C130.814 92.3478 130.876 90.4527 130.876 75.3194C130.876 60.1861 130.814 58.2865 130.543 52.3448C130.273 46.412 129.333 42.3588 127.955 38.8186C126.529 35.1546 124.624 32.0487 121.528 28.9472C118.431 25.8457 115.32 23.9421 111.661 22.5196C108.114 21.142 104.062 20.1969 98.1343 19.9312C92.1918 19.6597 90.2931 19.5938 75.162 19.5938C60.0309 19.5938 58.1278 19.6566 52.183 19.9312" fill="white"/>
<defs>
<radialGradient id="paint0_radial" cx="0" cy="0" r="1" gradientUnits="userSpaceOnUse" gradientTransform="translate(9.70785 146.714) scale(190.444)">
<stop offset="0.09" stop-color="#FA8F21"/>
<stop offset="0.78" stop-color="#D82D7E"/>
</radialGradient>
<radialGradient id="paint1_radial" cx="0" cy="0" r="1" gradientUnits="userSpaceOnUse" gradientTransform="translate(103.9 141.897) scale(167.593)">
<stop offset="0.64" stop-color="#8C3AAA" stop-opacity="0"/>
<stop offset="1" stop-color="#8C3AAA"/>
</radialGradient>
</defs>
</svg>
