<svg width="150" height="150" viewBox="0 0 150 150" fill="none" xmlns="http://www.w3.org/2000/svg">
<rect width="150" height="150" rx="35" fill="#F2F2F2"/>
<path d="M74.5 130C105.152 130 130 105.152 130 74.5C130 43.8482 105.152 19 74.5 19C43.8482 19 19 43.8482 19 74.5C19 105.152 43.8482 130 74.5 130Z" fill="url(#paint0_linear)"/>
<path d="M64.3258 99.9385C62.5278 99.9385 62.8333 99.2596 62.2132 97.5476L56.9258 80.1462L97.6258 56.001" fill="#C8DAEA"/>
<path d="M64.3242 99.9364C65.7117 99.9364 66.3248 99.3018 67.0992 98.5489L74.4992 91.3533L65.2686 85.7871" fill="#A9C9DD"/>
<path d="M65.2705 85.7896L87.637 102.314C90.1893 103.722 92.0314 102.993 92.6672 99.9446L101.771 57.0417C102.704 53.3046 100.347 51.6097 97.9053 52.7182L44.4449 73.3323C40.7957 74.7959 40.817 76.8318 43.7797 77.739L57.4989 82.0209L89.2601 61.9831C90.7595 61.0739 92.1356 61.5627 91.0061 62.5651" fill="url(#paint1_linear)"/>
<defs>
<linearGradient id="paint0_linear" x1="93.0037" y1="37.5037" x2="65.2537" y2="102.25" gradientUnits="userSpaceOnUse">
<stop stop-color="#37AEE2"/>
<stop offset="1" stop-color="#1E96C8"/>
</linearGradient>
<linearGradient id="paint1_linear" x1="81.4418" y1="74.4994" x2="90.127" y2="94.2634" gradientUnits="userSpaceOnUse">
<stop stop-color="#EFF7FC"/>
<stop offset="1" stop-color="white"/>
</linearGradient>
</defs>
</svg>
