<svg width="180" height="50" viewBox="0 0 180 50" fill="none" xmlns="http://www.w3.org/2000/svg">
<rect width="180" height="50" rx="10" fill="#333333"/>
<g clip-path="url(#clip0)">
<path d="M33.6009 18.3624L16.0689 8.09468C15.8486 7.9636 15.5715 7.97089 15.3583 8.10196C15.138 8.23304 15.0029 8.46607 15.0029 8.72822C15.0029 8.72822 15.01 9.67489 15.0171 11.2333L27.7877 24.3191L33.6009 18.3624Z" fill="url(#paint0_linear)"/>
<path d="M15.0166 11.2332C15.0379 16.855 15.1019 30.5016 15.1303 37.2958L27.7943 24.3191L15.0166 11.2332Z" fill="url(#paint1_linear)"/>
<path d="M43.6352 24.239L33.6006 18.3624L27.7803 24.3191L34.3468 31.0477L43.6423 25.4988C43.8626 25.3677 43.9976 25.1274 43.9976 24.8725C43.9976 24.6104 43.8555 24.3701 43.6352 24.239Z" fill="url(#paint2_linear)"/>
<path d="M15.123 37.2958C15.1373 39.7207 15.1444 41.2718 15.1444 41.2718C15.1444 41.534 15.2794 41.7743 15.4997 41.8981C15.72 42.0292 15.9901 42.0292 16.2104 41.8981L34.3535 31.0551L27.787 24.3264L15.123 37.2958Z" fill="url(#paint3_linear)"/>
</g>
<path d="M69.82 12.07C69.54 11.426 69.1107 10.922 68.532 10.558C67.9627 10.1847 67.2907 9.998 66.516 9.998C65.788 9.998 65.1347 10.166 64.556 10.502C63.9773 10.838 63.52 11.3187 63.184 11.944C62.848 12.56 62.68 13.2787 62.68 14.1C62.68 14.9213 62.848 15.6447 63.184 16.27C63.52 16.8953 63.9773 17.376 64.556 17.712C65.1347 18.048 65.788 18.216 66.516 18.216C67.1973 18.216 67.8087 18.0713 68.35 17.782C68.9007 17.4833 69.3393 17.0633 69.666 16.522C70.002 15.9713 70.1933 15.332 70.24 14.604H66.124V13.806H71.276V14.52C71.2293 15.3787 70.996 16.158 70.576 16.858C70.156 17.5487 69.5913 18.0947 68.882 18.496C68.182 18.8973 67.3933 19.098 66.516 19.098C65.6107 19.098 64.7893 18.888 64.052 18.468C63.3147 18.0387 62.7313 17.446 62.302 16.69C61.882 15.9247 61.672 15.0613 61.672 14.1C61.672 13.1387 61.882 12.28 62.302 11.524C62.7313 10.7587 63.3147 10.166 64.052 9.746C64.7893 9.31667 65.6107 9.102 66.516 9.102C67.5613 9.102 68.476 9.36333 69.26 9.886C70.044 10.4087 70.6133 11.1367 70.968 12.07H69.82ZM74.0512 10.012V13.666H77.7612V14.478H74.0512V18.188H78.1812V19H73.0712V9.2H78.1812V10.012H74.0512ZM85.8382 9.214V10.026H83.1222V19H82.1422V10.026H79.4122V9.214H85.8382ZM92.2074 9.214V19H91.2274V9.214H92.2074ZM100.153 9.214V10.026H97.4366V19H96.4566V10.026H93.7266V9.214H100.153ZM109.938 19.098C109.033 19.098 108.211 18.888 107.474 18.468C106.737 18.0387 106.153 17.446 105.724 16.69C105.304 15.9247 105.094 15.0613 105.094 14.1C105.094 13.1387 105.304 12.28 105.724 11.524C106.153 10.7587 106.737 10.166 107.474 9.746C108.211 9.31667 109.033 9.102 109.938 9.102C110.853 9.102 111.679 9.31667 112.416 9.746C113.153 10.166 113.732 10.7587 114.152 11.524C114.572 12.28 114.782 13.1387 114.782 14.1C114.782 15.0613 114.572 15.9247 114.152 16.69C113.732 17.446 113.153 18.0387 112.416 18.468C111.679 18.888 110.853 19.098 109.938 19.098ZM109.938 18.244C110.666 18.244 111.319 18.076 111.898 17.74C112.477 17.404 112.934 16.9233 113.27 16.298C113.606 15.6633 113.774 14.9307 113.774 14.1C113.774 13.2693 113.606 12.5413 113.27 11.916C112.934 11.2907 112.477 10.81 111.898 10.474C111.319 10.138 110.666 9.97 109.938 9.97C109.21 9.97 108.557 10.138 107.978 10.474C107.399 10.81 106.942 11.2907 106.606 11.916C106.27 12.5413 106.102 13.2693 106.102 14.1C106.102 14.9307 106.27 15.6633 106.606 16.298C106.942 16.9233 107.399 17.404 107.978 17.74C108.557 18.076 109.21 18.244 109.938 18.244ZM123.953 19H122.973L117.555 10.768V19H116.575V9.214H117.555L122.973 17.432V9.214H123.953V19Z" fill="#F2F2F2"/>
<path d="M70.248 31.08C69.96 30.5253 69.56 30.1093 69.048 29.832C68.536 29.544 67.944 29.4 67.272 29.4C66.536 29.4 65.88 29.5653 65.304 29.896C64.728 30.2267 64.2747 30.696 63.944 31.304C63.624 31.912 63.464 32.616 63.464 33.416C63.464 34.216 63.624 34.9253 63.944 35.544C64.2747 36.152 64.728 36.6213 65.304 36.952C65.88 37.2827 66.536 37.448 67.272 37.448C68.264 37.448 69.0693 37.1707 69.688 36.616C70.3067 36.0613 70.6853 35.3093 70.824 34.36H66.648V32.904H72.776V34.328C72.6587 35.192 72.3493 35.9867 71.848 36.712C71.3573 37.4373 70.712 38.0187 69.912 38.456C69.1227 38.8827 68.2427 39.096 67.272 39.096C66.2267 39.096 65.272 38.856 64.408 38.376C63.544 37.8853 62.856 37.208 62.344 36.344C61.8427 35.48 61.592 34.504 61.592 33.416C61.592 32.328 61.8427 31.352 62.344 30.488C62.856 29.624 63.544 28.952 64.408 28.472C65.2827 27.9813 66.2373 27.736 67.272 27.736C68.456 27.736 69.5067 28.0293 70.424 28.616C71.352 29.192 72.024 30.0133 72.44 31.08H70.248ZM79.199 39.144C78.367 39.144 77.615 38.9573 76.943 38.584C76.271 38.2 75.743 37.6667 75.359 36.984C74.975 36.2907 74.783 35.4907 74.783 34.584C74.783 33.688 74.9803 32.8933 75.375 32.2C75.7697 31.5067 76.3083 30.9733 76.991 30.6C77.6737 30.2267 78.4363 30.04 79.279 30.04C80.1217 30.04 80.8843 30.2267 81.567 30.6C82.2497 30.9733 82.7883 31.5067 83.183 32.2C83.5777 32.8933 83.775 33.688 83.775 34.584C83.775 35.48 83.5723 36.2747 83.167 36.968C82.7617 37.6613 82.207 38.2 81.503 38.584C80.8097 38.9573 80.0417 39.144 79.199 39.144ZM79.199 37.56C79.6683 37.56 80.1057 37.448 80.511 37.224C80.927 37 81.263 36.664 81.519 36.216C81.775 35.768 81.903 35.224 81.903 34.584C81.903 33.944 81.7803 33.4053 81.535 32.968C81.2897 32.52 80.9643 32.184 80.559 31.96C80.1537 31.736 79.7163 31.624 79.247 31.624C78.7777 31.624 78.3403 31.736 77.935 31.96C77.5403 32.184 77.2257 32.52 76.991 32.968C76.7563 33.4053 76.639 33.944 76.639 34.584C76.639 35.5333 76.879 36.2693 77.359 36.792C77.8497 37.304 78.463 37.56 79.199 37.56ZM90.2021 39.144C89.3701 39.144 88.6181 38.9573 87.9461 38.584C87.2741 38.2 86.7461 37.6667 86.3621 36.984C85.9781 36.2907 85.7861 35.4907 85.7861 34.584C85.7861 33.688 85.9835 32.8933 86.3781 32.2C86.7728 31.5067 87.3115 30.9733 87.9941 30.6C88.6768 30.2267 89.4395 30.04 90.2821 30.04C91.1248 30.04 91.8875 30.2267 92.5701 30.6C93.2528 30.9733 93.7915 31.5067 94.1861 32.2C94.5808 32.8933 94.7781 33.688 94.7781 34.584C94.7781 35.48 94.5755 36.2747 94.1701 36.968C93.7648 37.6613 93.2101 38.2 92.5061 38.584C91.8128 38.9573 91.0448 39.144 90.2021 39.144ZM90.2021 37.56C90.6715 37.56 91.1088 37.448 91.5141 37.224C91.9301 37 92.2661 36.664 92.5221 36.216C92.7781 35.768 92.9061 35.224 92.9061 34.584C92.9061 33.944 92.7835 33.4053 92.5381 32.968C92.2928 32.52 91.9675 32.184 91.5621 31.96C91.1568 31.736 90.7195 31.624 90.2501 31.624C89.7808 31.624 89.3435 31.736 88.9381 31.96C88.5435 32.184 88.2288 32.52 87.9941 32.968C87.7595 33.4053 87.6421 33.944 87.6421 34.584C87.6421 35.5333 87.8821 36.2693 88.3621 36.792C88.8528 37.304 89.4661 37.56 90.2021 37.56ZM100.933 30.04C101.616 30.04 102.219 30.1787 102.741 30.456C103.275 30.7227 103.691 31.0587 103.989 31.464V30.184H105.829V39.144C105.829 39.9547 105.659 40.6747 105.317 41.304C104.976 41.944 104.48 42.4453 103.829 42.808C103.189 43.1707 102.421 43.352 101.525 43.352C100.331 43.352 99.3386 43.0693 98.5493 42.504C97.7599 41.9493 97.3119 41.192 97.2053 40.232H99.0133C99.1519 40.6907 99.4453 41.0587 99.8933 41.336C100.352 41.624 100.896 41.768 101.525 41.768C102.261 41.768 102.853 41.544 103.301 41.096C103.76 40.648 103.989 39.9973 103.989 39.144V37.672C103.68 38.088 103.259 38.44 102.725 38.728C102.203 39.0053 101.605 39.144 100.933 39.144C100.165 39.144 99.4613 38.952 98.8213 38.568C98.1919 38.1733 97.6906 37.6293 97.3173 36.936C96.9546 36.232 96.7733 35.4373 96.7733 34.552C96.7733 33.6667 96.9546 32.8827 97.3173 32.2C97.6906 31.5173 98.1919 30.9893 98.8213 30.616C99.4613 30.232 100.165 30.04 100.933 30.04ZM103.989 34.584C103.989 33.976 103.861 33.448 103.605 33C103.36 32.552 103.035 32.2107 102.629 31.976C102.224 31.7413 101.787 31.624 101.317 31.624C100.848 31.624 100.411 31.7413 100.005 31.976C99.5999 32.2 99.2693 32.536 99.0133 32.984C98.7679 33.4213 98.6453 33.944 98.6453 34.552C98.6453 35.16 98.7679 35.6933 99.0133 36.152C99.2693 36.6107 99.5999 36.9627 100.005 37.208C100.421 37.4427 100.859 37.56 101.317 37.56C101.787 37.56 102.224 37.4427 102.629 37.208C103.035 36.9733 103.36 36.632 103.605 36.184C103.861 35.7253 103.989 35.192 103.989 34.584ZM110.849 27.16V39H109.025V27.16H110.849ZM122.124 34.376C122.124 34.7067 122.102 35.0053 122.06 35.272H115.324C115.377 35.976 115.638 36.5413 116.108 36.968C116.577 37.3947 117.153 37.608 117.836 37.608C118.817 37.608 119.51 37.1973 119.916 36.376H121.884C121.617 37.1867 121.132 37.8533 120.428 38.376C119.734 38.888 118.87 39.144 117.836 39.144C116.993 39.144 116.236 38.9573 115.564 38.584C114.902 38.2 114.38 37.6667 113.996 36.984C113.622 36.2907 113.436 35.4907 113.436 34.584C113.436 33.6773 113.617 32.8827 113.98 32.2C114.353 31.5067 114.87 30.9733 115.532 30.6C116.204 30.2267 116.972 30.04 117.836 30.04C118.668 30.04 119.409 30.2213 120.06 30.584C120.71 30.9467 121.217 31.4587 121.58 32.12C121.942 32.7707 122.124 33.5227 122.124 34.376ZM120.22 33.8C120.209 33.128 119.969 32.5893 119.5 32.184C119.03 31.7787 118.449 31.576 117.756 31.576C117.126 31.576 116.588 31.7787 116.14 32.184C115.692 32.5787 115.425 33.1173 115.34 33.8H120.22ZM137.451 31.192C137.451 31.7573 137.318 32.2907 137.051 32.792C136.784 33.2933 136.358 33.704 135.771 34.024C135.184 34.3333 134.432 34.488 133.515 34.488H131.499V39H129.675V27.88H133.515C134.368 27.88 135.088 28.0293 135.675 28.328C136.272 28.616 136.715 29.0107 137.003 29.512C137.302 30.0133 137.451 30.5733 137.451 31.192ZM133.515 33C134.208 33 134.726 32.8453 135.067 32.536C135.408 32.216 135.579 31.768 135.579 31.192C135.579 29.976 134.891 29.368 133.515 29.368H131.499V33H133.515ZM141.815 27.16V39H139.991V27.16H141.815ZM144.401 34.552C144.401 33.6667 144.583 32.8827 144.945 32.2C145.319 31.5173 145.82 30.9893 146.449 30.616C147.089 30.232 147.793 30.04 148.561 30.04C149.255 30.04 149.857 30.1787 150.369 30.456C150.892 30.7227 151.308 31.0587 151.617 31.464V30.184H153.457V39H151.617V37.688C151.308 38.104 150.887 38.4507 150.353 38.728C149.82 39.0053 149.212 39.144 148.529 39.144C147.772 39.144 147.079 38.952 146.449 38.568C145.82 38.1733 145.319 37.6293 144.945 36.936C144.583 36.232 144.401 35.4373 144.401 34.552ZM151.617 34.584C151.617 33.976 151.489 33.448 151.233 33C150.988 32.552 150.663 32.2107 150.257 31.976C149.852 31.7413 149.415 31.624 148.945 31.624C148.476 31.624 148.039 31.7413 147.633 31.976C147.228 32.2 146.897 32.536 146.641 32.984C146.396 33.4213 146.273 33.944 146.273 34.552C146.273 35.16 146.396 35.6933 146.641 36.152C146.897 36.6107 147.228 36.9627 147.633 37.208C148.049 37.4427 148.487 37.56 148.945 37.56C149.415 37.56 149.852 37.4427 150.257 37.208C150.663 36.9733 150.988 36.632 151.233 36.184C151.489 35.7253 151.617 35.192 151.617 34.584ZM164.589 30.184L159.181 43.144H157.293L159.085 38.856L155.613 30.184H157.645L160.125 36.904L162.701 30.184H164.589Z" fill="#F2F2F2"/>
<defs>
<linearGradient id="paint0_linear" x1="15.0029" y1="16.1628" x2="33.6042" y2="16.1628" gradientUnits="userSpaceOnUse">
<stop stop-color="#63BE6B"/>
<stop offset="0.506" stop-color="#5BBC6A"/>
<stop offset="1" stop-color="#4AB96A"/>
</linearGradient>
<linearGradient id="paint1_linear" x1="15.0132" y1="24.2676" x2="27.7869" y2="24.2676" gradientUnits="userSpaceOnUse">
<stop stop-color="#3EC6F2"/>
<stop offset="1" stop-color="#45AFE3"/>
</linearGradient>
<linearGradient id="paint2_linear" x1="27.7871" y1="24.7097" x2="43.9959" y2="24.7097" gradientUnits="userSpaceOnUse">
<stop stop-color="#FAA51A"/>
<stop offset="0.387" stop-color="#FAB716"/>
<stop offset="0.741" stop-color="#FAC412"/>
<stop offset="1" stop-color="#FAC80F"/>
</linearGradient>
<linearGradient id="paint3_linear" x1="15.1262" y1="33.1611" x2="34.3532" y2="33.1611" gradientUnits="userSpaceOnUse">
<stop stop-color="#EC3B50"/>
<stop offset="1" stop-color="#E7515B"/>
</linearGradient>
<clipPath id="clip0">
<rect width="29" height="34" fill="white" transform="translate(15 8)"/>
</clipPath>
</defs>
</svg>
