<svg width="127" height="50" viewBox="0 0 127 50" fill="none" xmlns="http://www.w3.org/2000/svg">
<rect width="127" height="50" rx="10" fill="#F2F2F2"/>
<path d="M63.876 10.214L60.166 20H59.046L55.336 10.214H56.4L59.606 18.936L62.84 10.214H63.876ZM65.8385 10.914C65.6425 10.914 65.4745 10.844 65.3345 10.704C65.1945 10.564 65.1245 10.3913 65.1245 10.186C65.1245 9.98067 65.1945 9.81267 65.3345 9.682C65.4745 9.542 65.6425 9.472 65.8385 9.472C66.0345 9.472 66.2025 9.542 66.3425 9.682C66.4825 9.81267 66.5525 9.98067 66.5525 10.186C66.5525 10.3913 66.4825 10.564 66.3425 10.704C66.2025 10.844 66.0345 10.914 65.8385 10.914ZM66.3285 12.356V20H65.3485V12.356H66.3285ZM75.4637 15.786C75.4637 16.122 75.4544 16.3787 75.4357 16.556H69.0937C69.1217 17.1347 69.2617 17.6293 69.5137 18.04C69.7657 18.4507 70.0971 18.7633 70.5077 18.978C70.9184 19.1833 71.3664 19.286 71.8517 19.286C72.4864 19.286 73.0184 19.132 73.4477 18.824C73.8864 18.516 74.1757 18.1007 74.3157 17.578H75.3517C75.1651 18.3247 74.7637 18.936 74.1477 19.412C73.5411 19.8787 72.7757 20.112 71.8517 20.112C71.1331 20.112 70.4891 19.9533 69.9197 19.636C69.3504 19.3093 68.9024 18.852 68.5757 18.264C68.2584 17.6667 68.0997 16.9713 68.0997 16.178C68.0997 15.3847 68.2584 14.6893 68.5757 14.092C68.8931 13.4947 69.3364 13.0373 69.9057 12.72C70.4751 12.4027 71.1237 12.244 71.8517 12.244C72.5797 12.244 73.2144 12.4027 73.7557 12.72C74.3064 13.0373 74.7264 13.4667 75.0157 14.008C75.3144 14.54 75.4637 15.1327 75.4637 15.786ZM74.4697 15.758C74.4791 15.1887 74.3624 14.7033 74.1197 14.302C73.8864 13.9007 73.5644 13.5973 73.1537 13.392C72.7431 13.1867 72.2951 13.084 71.8097 13.084C71.0817 13.084 70.4611 13.3173 69.9477 13.784C69.4344 14.2507 69.1497 14.9087 69.0937 15.758H74.4697ZM87.3367 12.356L84.9427 20H83.9627L81.8487 13.588L79.7347 20H78.7407L76.3467 12.356H77.3407L79.2447 19.006L81.3867 12.356H82.3667L84.4807 19.02L86.3707 12.356H87.3367ZM95.8605 20.112C95.1419 20.112 94.4932 19.9533 93.9145 19.636C93.3452 19.3093 92.8925 18.852 92.5565 18.264C92.2299 17.6667 92.0665 16.9713 92.0665 16.178C92.0665 15.3847 92.2345 14.694 92.5705 14.106C92.9065 13.5087 93.3639 13.0513 93.9425 12.734C94.5212 12.4073 95.1699 12.244 95.8885 12.244C96.6072 12.244 97.2559 12.4073 97.8345 12.734C98.4225 13.0513 98.8799 13.5087 99.2065 14.106C99.5425 14.694 99.7105 15.3847 99.7105 16.178C99.7105 16.962 99.5425 17.6527 99.2065 18.25C98.8705 18.8473 98.4085 19.3093 97.8205 19.636C97.2325 19.9533 96.5792 20.112 95.8605 20.112ZM95.8605 19.258C96.3645 19.258 96.8312 19.146 97.2605 18.922C97.6899 18.6887 98.0352 18.3433 98.2965 17.886C98.5672 17.4193 98.7025 16.85 98.7025 16.178C98.7025 15.506 98.5719 14.9413 98.3105 14.484C98.0492 14.0173 97.7039 13.672 97.2745 13.448C96.8452 13.2147 96.3785 13.098 95.8745 13.098C95.3705 13.098 94.9039 13.2147 94.4745 13.448C94.0452 13.672 93.6999 14.0173 93.4385 14.484C93.1865 14.9413 93.0605 15.506 93.0605 16.178C93.0605 16.85 93.1865 17.4193 93.4385 17.886C93.6999 18.3433 94.0405 18.6887 94.4605 18.922C94.8899 19.146 95.3565 19.258 95.8605 19.258ZM105.081 12.216C105.996 12.216 106.742 12.5007 107.321 13.07C107.9 13.63 108.189 14.4467 108.189 15.52V20H107.223V15.632C107.223 14.8013 107.013 14.1667 106.593 13.728C106.182 13.2893 105.618 13.07 104.899 13.07C104.162 13.07 103.574 13.3033 103.135 13.77C102.696 14.2367 102.477 14.9227 102.477 15.828V20H101.497V12.356H102.477V13.658C102.72 13.1913 103.07 12.8367 103.527 12.594C103.984 12.342 104.502 12.216 105.081 12.216Z" fill="#333333"/>
<path d="M61.776 29.27V30.572H57.646V33.442H60.866V34.744H57.646V39H56.05V29.27H61.776ZM64.0671 30.264C63.7777 30.264 63.5351 30.166 63.3391 29.97C63.1431 29.774 63.0451 29.5313 63.0451 29.242C63.0451 28.9527 63.1431 28.71 63.3391 28.514C63.5351 28.318 63.7777 28.22 64.0671 28.22C64.3471 28.22 64.5851 28.318 64.7811 28.514C64.9771 28.71 65.0751 28.9527 65.0751 29.242C65.0751 29.5313 64.9771 29.774 64.7811 29.97C64.5851 30.166 64.3471 30.264 64.0671 30.264ZM64.8511 31.286V39H63.2551V31.286H64.8511ZM70.0545 31.16C70.6518 31.16 71.1792 31.2813 71.6365 31.524C72.1032 31.7573 72.4672 32.0513 72.7285 32.406V31.286H74.3385V39.126C74.3385 39.8353 74.1892 40.4653 73.8905 41.016C73.5918 41.576 73.1578 42.0147 72.5885 42.332C72.0285 42.6493 71.3565 42.808 70.5725 42.808C69.5272 42.808 68.6592 42.5607 67.9685 42.066C67.2778 41.5807 66.8858 40.918 66.7925 40.078H68.3745C68.4958 40.4793 68.7525 40.8013 69.1445 41.044C69.5458 41.296 70.0218 41.422 70.5725 41.422C71.2165 41.422 71.7345 41.226 72.1265 40.834C72.5278 40.442 72.7285 39.8727 72.7285 39.126V37.838C72.4578 38.202 72.0892 38.51 71.6225 38.762C71.1652 39.0047 70.6425 39.126 70.0545 39.126C69.3825 39.126 68.7665 38.958 68.2065 38.622C67.6558 38.2767 67.2172 37.8007 66.8905 37.194C66.5732 36.578 66.4145 35.8827 66.4145 35.108C66.4145 34.3333 66.5732 33.6473 66.8905 33.05C67.2172 32.4527 67.6558 31.9907 68.2065 31.664C68.7665 31.328 69.3825 31.16 70.0545 31.16ZM72.7285 35.136C72.7285 34.604 72.6165 34.142 72.3925 33.75C72.1778 33.358 71.8932 33.0593 71.5385 32.854C71.1838 32.6487 70.8012 32.546 70.3905 32.546C69.9798 32.546 69.5972 32.6487 69.2425 32.854C68.8878 33.05 68.5985 33.344 68.3745 33.736C68.1598 34.1187 68.0525 34.576 68.0525 35.108C68.0525 35.64 68.1598 36.1067 68.3745 36.508C68.5985 36.9093 68.8878 37.2173 69.2425 37.432C69.6065 37.6373 69.9892 37.74 70.3905 37.74C70.8012 37.74 71.1838 37.6373 71.5385 37.432C71.8932 37.2267 72.1778 36.928 72.3925 36.536C72.6165 36.1347 72.7285 35.668 72.7285 35.136ZM85.7728 31.16C86.3794 31.16 86.9208 31.286 87.3968 31.538C87.8821 31.79 88.2601 32.1633 88.5308 32.658C88.8108 33.1527 88.9508 33.75 88.9508 34.45V39H87.3688V34.688C87.3688 33.9973 87.1961 33.47 86.8508 33.106C86.5054 32.7327 86.0341 32.546 85.4368 32.546C84.8394 32.546 84.3634 32.7327 84.0088 33.106C83.6634 33.47 83.4908 33.9973 83.4908 34.688V39H81.9088V34.688C81.9088 33.9973 81.7361 33.47 81.3908 33.106C81.0454 32.7327 80.5741 32.546 79.9768 32.546C79.3794 32.546 78.9034 32.7327 78.5488 33.106C78.2034 33.47 78.0308 33.9973 78.0308 34.688V39H76.4348V31.286H78.0308V32.168C78.2921 31.8507 78.6234 31.6033 79.0248 31.426C79.4261 31.2487 79.8554 31.16 80.3128 31.16C80.9288 31.16 81.4794 31.2907 81.9648 31.552C82.4501 31.8133 82.8234 32.1913 83.0848 32.686C83.3181 32.2193 83.6821 31.8507 84.1768 31.58C84.6714 31.3 85.2034 31.16 85.7728 31.16ZM90.4496 35.108C90.4496 34.3333 90.6083 33.6473 90.9256 33.05C91.2523 32.4527 91.691 31.9907 92.2416 31.664C92.8016 31.328 93.4176 31.16 94.0896 31.16C94.6963 31.16 95.2236 31.2813 95.6716 31.524C96.129 31.7573 96.493 32.0513 96.7636 32.406V31.286H98.3736V39H96.7636V37.852C96.493 38.216 96.1243 38.5193 95.6576 38.762C95.191 39.0047 94.659 39.126 94.0616 39.126C93.399 39.126 92.7923 38.958 92.2416 38.622C91.691 38.2767 91.2523 37.8007 90.9256 37.194C90.6083 36.578 90.4496 35.8827 90.4496 35.108ZM96.7636 35.136C96.7636 34.604 96.6516 34.142 96.4276 33.75C96.213 33.358 95.9283 33.0593 95.5736 32.854C95.219 32.6487 94.8363 32.546 94.4256 32.546C94.015 32.546 93.6323 32.6487 93.2776 32.854C92.923 33.05 92.6336 33.344 92.4096 33.736C92.195 34.1187 92.0876 34.576 92.0876 35.108C92.0876 35.64 92.195 36.1067 92.4096 36.508C92.6336 36.9093 92.923 37.2173 93.2776 37.432C93.6416 37.6373 94.0243 37.74 94.4256 37.74C94.8363 37.74 95.219 37.6373 95.5736 37.432C95.9283 37.2267 96.213 36.928 96.4276 36.536C96.6516 36.1347 96.7636 35.668 96.7636 35.136Z" fill="#333333"/>
<g clip-path="url(#clip0)">
<path d="M23.7508 44C26.9242 44 29.4997 41.3867 29.4997 38.1666V32.3333H23.7508C20.5774 32.3333 18.002 34.9466 18.002 38.1666C18.002 41.3867 20.5774 44 23.7508 44Z" fill="#0ACF83"/>
<path d="M18.002 26.5C18.002 23.28 20.5774 20.6667 23.7508 20.6667H29.4997V32.3333H23.7508C20.5774 32.3333 18.002 29.72 18.002 26.5Z" fill="#A259FF"/>
<path d="M18.0029 14.8333C18.0029 11.6133 20.5784 9 23.7518 9H29.5006V20.6667H23.7518C20.5784 20.6667 18.0029 18.0533 18.0029 14.8333Z" fill="#F24E1E"/>
<path d="M29.5 9H35.2489C38.4222 9 40.9977 11.6133 40.9977 14.8333C40.9977 18.0533 38.4222 20.6667 35.2489 20.6667H29.5V9Z" fill="#FF7262"/>
<path d="M40.9977 26.5C40.9977 29.72 38.4222 32.3333 35.2489 32.3333C32.0755 32.3333 29.5 29.72 29.5 26.5C29.5 23.28 32.0755 20.6667 35.2489 20.6667C38.4222 20.6667 40.9977 23.28 40.9977 26.5Z" fill="#1ABCFE"/>
</g>
<defs>
<clipPath id="clip0">
<rect width="23" height="35" fill="white" transform="translate(18 9)"/>
</clipPath>
</defs>
</svg>
